<?xml version="1.0" standalone="no"?>
<!DOCTYPE svg PUBLIC "-//W3C//DTD SVG 20010904//EN"
 "http://www.w3.org/TR/2001/REC-SVG-20010904/DTD/svg10.dtd">
<svg version="1.0" xmlns="http://www.w3.org/2000/svg"
 width="231.000000pt" height="231.000000pt" viewBox="0 0 231.000000 231.000000"
 preserveAspectRatio="xMidYMid meet">
<metadata>
Created by potrace 1.14, written by Peter Selinger 2001-2017
</metadata>
<g transform="translate(0.000000,231.000000) scale(0.100000,-0.100000)"
fill="#000000" stroke="none">
<path d="M681 1590 l-103 -180 -187 -2 -186 -3 0 -30 1 -30 166 0 167 0 -31
-55 c-60 -105 -30 -95 -276 -97 -119 0 -221 -2 -225 -2 -5 -1 -7 -15 -5 -33
l3 -32 223 1 222 1 42 -71 c22 -40 42 -74 43 -77 2 -3 -71 -5 -162 -5 -159 0
-166 -1 -169 -20 -6 -42 4 -44 193 -45 l182 -1 58 -102 c32 -56 64 -114 73
-128 8 -14 28 -49 44 -77 l29 -51 28 15 c16 8 29 16 29 19 0 2 -29 54 -65 115
-36 61 -65 115 -65 121 0 5 -4 9 -10 9 -5 0 -10 4 -10 9 0 6 -41 79 -90 164
l-91 155 26 46 c14 25 88 154 165 287 77 133 140 244 140 245 0 2 -13 10 -28
18 l-28 15 -103 -179z"/>
<path d="M1497 1754 c-15 -8 -27 -16 -27 -18 0 -2 32 -59 71 -127 40 -68 114
-197 165 -287 l94 -163 -27 -47 c-16 -26 -33 -56 -40 -67 -7 -11 -15 -26 -19
-34 -4 -7 -60 -106 -126 -218 -65 -113 -118 -207 -118 -209 0 -2 13 -10 28
-18 l28 -14 102 178 103 178 181 1 c116 0 184 4 188 11 4 6 6 21 5 33 -2 22
-3 22 -168 22 l-165 0 35 65 c20 36 40 70 45 76 5 7 79 11 220 12 117 0 219 1
226 1 6 1 12 14 12 30 0 16 -6 31 -12 33 -7 2 -109 3 -226 2 l-213 -1 -41 71
c-22 39 -42 73 -44 76 -1 3 68 5 154 4 86 0 162 1 168 3 6 2 10 16 9 31 l-1
27 -187 3 -186 2 -38 68 c-21 37 -43 76 -50 87 -7 11 -15 26 -19 33 -4 8 -28
49 -53 92 l-47 78 -27 -14z"/>
<path d="M976 1372 c-3 -3 -6 -101 -6 -219 l0 -213 48 -1 c223 -5 302 53 305
226 2 93 -27 148 -96 184 -41 20 -65 25 -147 27 -54 1 -101 -1 -104 -4z m204
-58 c49 -20 78 -58 89 -117 16 -87 -33 -187 -99 -202 -56 -12 -140 -13 -142
-1 0 6 -2 84 -3 174 l-1 162 58 0 c32 0 76 -7 98 -16z"/>
</g>
</svg>
